<?xml version="1.0" encoding="UTF-8" standalone="no"?>
<!DOCTYPE svg PUBLIC "-//W3C//DTD SVG 1.1//EN"
 "http://www.w3.org/Graphics/SVG/1.1/DTD/svg11.dtd">
<!-- Generated by graphviz version 2.44.1 (20200629.0800)
 -->
<!-- Title: ML_Math Pages: 1 -->
<svg width="1283pt" height="350pt"
 viewBox="0.00 0.00 1282.50 350.00" xmlns="http://www.w3.org/2000/svg" xmlns:xlink="http://www.w3.org/1999/xlink">
<g id="graph0" class="graph" transform="scale(1 1) rotate(0) translate(4 346)">
<title>ML_Math</title>
<polygon fill="white" stroke="transparent" points="-4,4 -4,-346 1278.5,-346 1278.5,4 -4,4"/>
<!-- 1993 -->
<g id="node1" class="node">
<title>1993</title>
<text text-anchor="middle" x="27" y="-320.3" font-family="Times New Roman,serif" font-size="14.00">1993</text>
</g>
<!-- 2013 -->
<g id="node2" class="node">
<title>2013</title>
<text text-anchor="middle" x="27" y="-233.3" font-family="Times New Roman,serif" font-size="14.00">2013</text>
</g>
<!-- 1993&#45;&gt;2013 -->
<g id="edge1" class="edge">
<title>1993&#45;&gt;2013</title>
<path fill="none" stroke="black" stroke-dasharray="5,2" d="M27,-305.8C27,-294.16 27,-278.55 27,-265.24"/>
<polygon fill="black" stroke="black" points="30.5,-265.18 27,-255.18 23.5,-265.18 30.5,-265.18"/>
</g>
<!-- 2015 -->
<g id="node3" class="node">
<title>2015</title>
<text text-anchor="middle" x="27" y="-160.3" font-family="Times New Roman,serif" font-size="14.00">2015</text>
</g>
<!-- 2013&#45;&gt;2015 -->
<g id="edge2" class="edge">
<title>2013&#45;&gt;2015</title>
<path fill="none" stroke="black" stroke-dasharray="5,2" d="M27,-218.81C27,-210.79 27,-201.05 27,-192.07"/>
<polygon fill="black" stroke="black" points="30.5,-192.03 27,-182.03 23.5,-192.03 30.5,-192.03"/>
</g>
<!-- 2016 -->
<g id="node4" class="node">
<title>2016</title>
<text text-anchor="middle" x="27" y="-87.3" font-family="Times New Roman,serif" font-size="14.00">2016</text>
</g>
<!-- 2015&#45;&gt;2016 -->
<g id="edge3" class="edge">
<title>2015&#45;&gt;2016</title>
<path fill="none" stroke="black" stroke-dasharray="5,2" d="M27,-145.81C27,-137.79 27,-128.05 27,-119.07"/>
<polygon fill="black" stroke="black" points="30.5,-119.03 27,-109.03 23.5,-119.03 30.5,-119.03"/>
</g>
<!-- 2017 -->
<g id="node5" class="node">
<title>2017</title>
<text text-anchor="middle" x="27" y="-14.3" font-family="Times New Roman,serif" font-size="14.00">2017</text>
</g>
<!-- 2016&#45;&gt;2017 -->
<g id="edge4" class="edge">
<title>2016&#45;&gt;2017</title>
<path fill="none" stroke="black" stroke-dasharray="5,2" d="M27,-72.81C27,-64.79 27,-55.05 27,-46.07"/>
<polygon fill="black" stroke="black" points="30.5,-46.03 27,-36.03 23.5,-46.03 30.5,-46.03"/>
</g>
<!-- a1993 -->
<g id="node6" class="node">
<title>a1993</title>
<polygon fill="none" stroke="black" points="637,-342 287,-342 287,-306 637,-306 637,-342"/>
<text text-anchor="middle" x="462" y="-320.3" font-family="Times New Roman,serif" font-size="14.00">Reinforcement Learning for Robots Using Neural Networks</text>
</g>
<!-- a2013 -->
<g id="node7" class="node">
<title>a2013</title>
<polygon fill="none" stroke="black" points="604.5,-255 319.5,-255 319.5,-219 604.5,-219 604.5,-255"/>
<text text-anchor="middle" x="462" y="-233.3" font-family="Times New Roman,serif" font-size="14.00">Playing Atari with Deep Reinforcement Learning</text>
</g>
<!-- a1993&#45;&gt;a2013 -->
<g id="edge5" class="edge">
<title>a1993&#45;&gt;a2013</title>
<path fill="none" stroke="darkgreen" d="M462,-305.8C462,-294.16 462,-278.55 462,-265.24"/>
<polygon fill="darkgreen" stroke="darkgreen" points="465.5,-265.18 462,-255.18 458.5,-265.18 465.5,-265.18"/>
<text text-anchor="middle" x="543.5" y="-276.8" font-family="Times New Roman,serif" font-size="14.00">experience replay mechanism</text>
</g>
<!-- a2015 -->
<g id="node8" class="node">
<title>a2015</title>
<polygon fill="none" stroke="black" points="392,-182 76,-182 76,-146 392,-146 392,-182"/>
<text text-anchor="middle" x="234" y="-160.3" font-family="Times New Roman,serif" font-size="14.00">Deep Reinforcement Learning with Double Q&#45;learning</text>
</g>
<!-- a2013&#45;&gt;a2015 -->
<g id="edge6" class="edge">
<title>a2013&#45;&gt;a2015</title>
<path fill="none" stroke="darkgreen" d="M407.39,-218.99C374.77,-208.84 333.16,-195.88 298.88,-185.2"/>
<polygon fill="darkgreen" stroke="darkgreen" points="299.54,-181.75 288.96,-182.11 297.46,-188.43 299.54,-181.75"/>
</g>
<!-- a2016 -->
<g id="node9" class="node">
<title>a2016</title>
<polygon fill="none" stroke="black" points="254,-109 72,-109 72,-73 254,-73 254,-109"/>
<text text-anchor="middle" x="163" y="-87.3" font-family="Times New Roman,serif" font-size="14.00">Prioritized Experience Replay</text>
</g>
<!-- a2013&#45;&gt;a2016 -->
<g id="edge7" class="edge">
<title>a2013&#45;&gt;a2016</title>
<path fill="none" stroke="darkgreen" d="M455.11,-218.84C445.92,-198.24 427.66,-164.2 401,-146 389.07,-137.85 322.28,-123.06 262.48,-111.01"/>
<polygon fill="darkgreen" stroke="darkgreen" points="263.06,-107.56 252.57,-109.02 261.69,-114.42 263.06,-107.56"/>
</g>
<!-- b2016 -->
<g id="node10" class="node">
<title>b2016</title>
<polygon fill="none" stroke="black" points="651.5,-109 272.5,-109 272.5,-73 651.5,-73 651.5,-109"/>
<text text-anchor="middle" x="462" y="-87.3" font-family="Times New Roman,serif" font-size="14.00">Dueling Network Architectures for Deep Reinforcement Learning</text>
</g>
<!-- a2013&#45;&gt;b2016 -->
<g id="edge8" class="edge">
<title>a2013&#45;&gt;b2016</title>
<path fill="none" stroke="darkgreen" d="M462,-218.92C462,-194.34 462,-148.75 462,-119.43"/>
<polygon fill="darkgreen" stroke="darkgreen" points="465.5,-119.06 462,-109.06 458.5,-119.06 465.5,-119.06"/>
</g>
<!-- a2017 -->
<g id="node11" class="node">
<title>a2017</title>
<polygon fill="none" stroke="black" points="853.5,-36 506.5,-36 506.5,0 853.5,0 853.5,-36"/>
<text text-anchor="middle" x="680" y="-14.3" font-family="Times New Roman,serif" font-size="14.00">Deep Recurrent Q&#45;Learning for Partially Observable MDPs</text>
</g>
<!-- a2013&#45;&gt;a2017 -->
<g id="edge9" class="edge">
<title>a2013&#45;&gt;a2017</title>
<path fill="none" stroke="darkgreen" d="M507.59,-218.97C553.32,-199.47 622.24,-163.08 660,-109 672.85,-90.59 677.63,-65.34 679.31,-46.27"/>
<polygon fill="darkgreen" stroke="darkgreen" points="682.82,-46.33 679.98,-36.12 675.83,-45.87 682.82,-46.33"/>
</g>
<!-- b2017 -->
<g id="node12" class="node">
<title>b2017</title>
<polygon fill="none" stroke="black" points="1274.5,-36 871.5,-36 871.5,0 1274.5,0 1274.5,-36"/>
<text text-anchor="middle" x="1073" y="-14.3" font-family="Times New Roman,serif" font-size="14.00">Rainbow: Combining Improvements in Deep Reinforcement Learning</text>
</g>
<!-- a2013&#45;&gt;b2017 -->
<g id="edge10" class="edge">
<title>a2013&#45;&gt;b2017</title>
<path fill="none" stroke="darkgreen" d="M511.58,-218.99C542.26,-208.43 582.45,-194.52 618,-182 761.65,-131.41 930.33,-70.62 1016.33,-39.52"/>
<polygon fill="darkgreen" stroke="darkgreen" points="1017.68,-42.75 1025.9,-36.06 1015.3,-36.17 1017.68,-42.75"/>
</g>
</g>
</svg>
